<?xml version="1.0" standalone="no"?>
<!DOCTYPE svg PUBLIC "-//W3C//DTD SVG 20010904//EN"
 "http://www.w3.org/TR/2001/REC-SVG-20010904/DTD/svg10.dtd">
<svg version="1.0" xmlns="http://www.w3.org/2000/svg"
 width="1024.000000pt" height="1024.000000pt" viewBox="0 0 1024.000000 1024.000000"
 preserveAspectRatio="xMidYMid meet">

<g transform="translate(0.000000,1024.000000) scale(0.100000,-0.100000)"
fill="#000000" stroke="none">
<path d="M7070 9619 c-30 -5 -84 -19 -120 -32 l-65 -22 120 -6 c339 -17 585
-166 834 -502 34 -47 80 -113 288 -420 29 -43 82 -118 118 -167 l66 -89 49 35
49 36 -17 26 c-70 110 -454 678 -488 722 -59 77 -190 204 -265 258 -179 126
-404 190 -569 161z"/>
<path d="M3739 9531 l-96 -58 -89 53 c-49 30 -93 54 -97 54 -5 0 -7 -64 -4
-141 l4 -142 99 -67 100 -68 99 66 100 67 3 65 c4 77 -7 230 -16 229 -4 0 -50
-27 -103 -58z"/>
<path d="M6890 9522 c-60 -5 -140 -23 -140 -32 0 -6 639 -440 727 -493 12 -8
63 89 113 215 l19 47 -37 32 c-93 82 -264 173 -382 204 -65 17 -235 32 -300
27z"/>
<path d="M2705 9449 c-27 -8 -27 -8 8 -4 51 5 40 -7 -69 -82 -46 -31 -84 -64
-84 -72 0 -25 36 -132 43 -132 4 1 26 2 50 2 23 1 32 4 19 6 -21 4 -17 11 48
79 60 63 69 77 60 94 -5 10 -10 39 -10 63 0 32 -5 47 -16 51 -9 3 -16 5 -17 5
-1 -1 -15 -5 -32 -10z"/>
<path d="M2555 9416 c-127 -34 -187 -81 -215 -170 -34 -106 40 -209 182 -251
61 -17 61 -35 0 -28 -42 4 -61 0 -126 -31 -43 -19 -75 -40 -72 -45 3 -5 -2 -8
-12 -7 -9 0 -16 -5 -14 -12 1 -8 -2 -11 -8 -7 -12 8 -52 -13 -45 -24 2 -5 -3
-8 -13 -7 -9 0 -16 -5 -14 -12 1 -8 -2 -11 -8 -7 -8 5 -205 -123 -361 -234
-17 -12 -19 -11 -19 8 0 62 -68 121 -139 121 -35 0 -61 -13 -178 -91 -323
-213 -882 -577 -926 -602 -54 -32 -68 -59 -61 -114 10 -83 73 -127 171 -120
75 6 67 1 443 245 459 297 599 390 690 453 177 124 523 349 578 376 54 25 68
27 237 33 169 6 183 8 232 33 74 38 118 80 148 142 24 48 26 60 19 127 -8 86
-18 118 -38 118 -8 0 -50 -33 -93 -74 -73 -69 -83 -75 -129 -79 l-49 -3 50 -2
c49 -1 52 0 130 73 117 109 136 100 59 -25 -87 -143 -135 -170 -293 -170 -194
0 -331 80 -331 192 0 38 44 110 84 137 21 14 84 37 140 52 55 15 92 27 81 27
-11 1 -56 -9 -100 -22z m-58 -462 c-3 -3 -12 -4 -19 -1 -8 3 -5 6 6 6 11 1 17
-2 13 -5z m-77 -24 c-8 -5 -19 -10 -25 -10 -5 0 -3 5 5 10 8 5 20 10 25 10 6
0 3 -5 -5 -10z m-806 -328 c3 -5 -93 -71 -212 -148 -119 -76 -286 -185 -370
-241 -134 -88 -182 -111 -182 -84 0 3 141 96 312 206 172 110 337 217 367 237
58 38 76 44 85 30z m-959 -717 l30 -13 -38 -1 c-25 -1 -40 4 -43 14 -4 8 -10
12 -15 9 -5 -3 -9 0 -9 6 0 12 22 7 75 -15z"/>
<path d="M7600 9135 c-76 -165 -387 -859 -428 -955 -22 -52 -56 -129 -75 -171
l-35 -76 201 -6 c111 -4 250 -7 309 -7 101 0 111 -2 155 -29 27 -16 57 -32 68
-35 23 -7 97 -106 139 -186 l29 -55 -7 -336 c-4 -243 -3 -346 6 -370 16 -47
46 -90 109 -155 l53 -56 61 4 c106 7 191 78 214 178 6 26 11 199 11 418 0 204
3 372 6 372 3 0 25 -12 50 -26 l44 -26 0 24 c0 18 -15 32 -67 63 -36 22 -67
48 -69 58 -3 25 10 21 69 -18 58 -39 67 -42 67 -20 0 8 -31 35 -70 60 -56 36
-70 50 -70 70 0 14 2 25 4 25 2 0 27 -16 56 -35 29 -19 58 -35 66 -35 30 0 11
22 -56 65 -56 36 -70 50 -70 70 0 24 1 23 65 -21 56 -40 66 -43 72 -28 7 19
-10 36 -90 91 -30 21 -47 40 -47 53 0 11 3 20 6 20 3 0 31 -18 61 -40 51 -36
73 -42 73 -20 0 5 -31 31 -70 59 -38 28 -70 59 -70 68 0 25 44 76 84 98 l36
20 0 97 c0 54 -2 98 -5 98 -3 0 -45 -27 -94 -59 l-87 -59 -96 131 c-52 73
-159 227 -238 342 -160 234 -208 300 -279 377 l-49 53 -42 -90z m283 -740 c50
-30 98 -55 106 -55 14 -1 14 -3 -1 -14 -10 -7 -18 -20 -18 -29 0 -9 -9 -19
-21 -22 -20 -7 -101 41 -181 108 -26 21 -27 24 -12 45 8 12 20 22 25 22 6 0
52 -25 102 -55z m-60 -155 l105 -70 66 14 c36 7 66 10 66 6 0 -4 -17 -11 -37
-15 -67 -12 -114 -28 -105 -37 5 -5 28 -2 52 7 24 8 45 13 47 11 3 -2 -27 -15
-66 -27 l-71 -23 -72 50 c-40 27 -85 59 -100 72 -27 23 -27 25 -13 53 9 16 17
29 19 29 2 0 51 -32 109 -70z m-261 -190 c-3 -44 -17 -58 -40 -44 -38 24 -20
88 22 82 17 -2 21 -9 18 -38z m408 -345 c0 -41 -12 -45 -29 -9 -12 28 -7 44
15 44 9 0 14 -11 14 -35z m158 -69 c20 -18 34 -18 75 -1 10 4 17 3 17 -4 0
-23 -49 -32 -81 -15 -28 14 -69 67 -69 89 0 6 8 -3 19 -20 10 -16 28 -38 39
-49z m68 -618 c8 -15 14 -46 14 -68 0 -33 -6 -48 -29 -71 -47 -47 -113 -32
-147 32 -22 43 -17 46 20 10 45 -44 108 -54 126 -21 18 34 6 104 -25 153 l-28
42 28 -25 c15 -14 33 -37 41 -52z"/>
<path d="M7880 8130 c0 -5 5 -10 10 -10 6 0 10 5 10 10 0 6 -4 10 -10 10 -5 0
-10 -4 -10 -10z"/>
<path d="M6510 9039 c-29 -16 -55 -31 -57 -33 -2 -2 51 -39 119 -81 68 -43
205 -132 306 -198 l183 -119 49 34 c27 18 49 35 49 38 0 3 -108 75 -241 160
-132 85 -267 171 -298 192 l-57 36 -53 -29z"/>
<path d="M5810 9008 c0 -9 5 -18 12 -20 11 -4 -225 -154 -702 -448 -466 -287
-747 -458 -780 -477 -19 -10 -72 -43 -117 -72 -82 -52 -88 -62 -62 -96 12 -16
136 -240 212 -380 38 -71 107 -194 153 -271 46 -78 84 -149 84 -157 0 -9 4
-18 9 -21 13 -9 351 -604 351 -619 0 -4 36 -67 80 -140 76 -126 90 -157 73
-157 -7 1 -118 192 -301 520 -36 63 -88 156 -117 205 -48 82 -163 289 -318
570 -33 61 -111 199 -174 308 -81 140 -112 203 -108 217 8 25 102 73 130 66
29 -7 49 8 42 34 -5 18 -3 19 9 9 8 -7 14 -8 13 -3 -4 23 2 26 16 8 15 -19 15
-19 9 1 -6 16 -5 18 7 8 7 -7 16 -13 20 -13 8 0 4 33 -5 48 -2 4 7 13 22 20
15 6 41 23 57 37 l30 26 -32 -16 c-40 -19 -65 -20 -40 -1 15 12 2 22 -125 90
l-143 76 -3 -51 c-4 -59 -6 -57 117 -120 47 -24 88 -45 90 -47 3 -1 -2 -9 -11
-18 -14 -14 -23 -12 -96 25 -45 23 -86 41 -91 41 -10 0 -3 -80 9 -93 4 -5 25
-14 45 -21 l38 -13 -26 -17 c-21 -14 -30 -15 -47 -6 -26 14 -38 6 -21 -14 12
-15 -59 -73 -310 -252 -160 -114 -415 -301 -576 -422 l-153 -114 0 -89 c0 -69
3 -89 13 -83 6 4 54 36 105 71 52 36 96 62 99 60 2 -3 4 -39 4 -81 0 -42 2
-76 5 -76 4 0 23 13 43 28 20 16 126 92 236 169 287 200 490 353 487 365 -1 5
2 7 8 3 5 -3 26 5 46 19 21 14 41 23 46 20 5 -3 20 -29 35 -57 14 -29 69 -128
121 -222 52 -93 127 -226 165 -295 38 -69 116 -206 172 -305 135 -237 295
-526 330 -595 15 -30 37 -65 49 -77 21 -22 21 -29 22 -457 1 -240 -1 -436 -5
-436 -4 0 -43 22 -86 48 -44 27 -147 88 -230 136 -82 48 -169 101 -192 118
l-41 30 -154 -87 c-84 -49 -158 -88 -163 -88 -8 0 -662 387 -847 502 l-38 23
0 -50 c0 -28 -3 -57 -6 -65 -4 -10 95 -74 363 -234 202 -121 392 -233 421
-248 l52 -28 -62 -34 c-37 -20 -70 -31 -81 -27 -10 3 -100 55 -200 116 -100
61 -258 157 -352 213 -93 56 -195 119 -225 139 -30 20 -58 36 -63 36 -4 0 -7
-28 -5 -62 l3 -61 160 -100 c88 -55 283 -174 433 -264 l273 -165 59 31 c39 21
72 31 102 31 31 0 57 8 90 29 96 61 240 141 254 141 8 0 31 -11 52 -24 20 -12
109 -64 197 -113 88 -49 190 -109 228 -131 37 -23 73 -42 80 -42 7 0 44 19 82
41 39 23 234 136 435 251 426 246 547 316 845 492 121 71 232 136 247 145 15
9 29 24 32 34 2 10 2 195 -1 410 -3 216 -3 454 2 529 l7 137 74 51 c41 28 74
54 74 57 0 3 -38 71 -84 152 -85 149 -222 394 -284 511 -20 36 -65 118 -101
182 -36 64 -104 187 -151 273 -159 291 -413 742 -435 770 -12 17 -14 18 -15 3z
m560 -2616 l0 -158 -63 -37 c-35 -20 -67 -37 -71 -37 -4 0 -6 72 -5 160 l2
160 61 34 c33 20 64 35 69 36 4 0 7 -71 7 -158z m-200 -114 l0 -163 -74 -42
c-40 -24 -76 -43 -79 -43 -9 0 -7 265 2 303 4 22 22 38 71 68 36 21 68 38 73
39 4 0 7 -73 7 -162z m-230 -130 l0 -163 -66 -37 c-36 -21 -70 -38 -75 -38
-10 0 -10 133 0 248 l6 73 60 39 c33 21 63 39 68 39 4 1 7 -72 7 -161z m547 2
c-39 -26 -220 -130 -612 -355 -88 -50 -242 -140 -343 -199 -172 -102 -184
-108 -200 -92 -16 16 -15 18 8 36 38 29 240 146 870 505 85 49 177 103 203
121 43 28 52 31 82 21 l34 -10 -42 -27z m-757 -122 l-1 -163 -73 -41 -73 -40
-7 74 c-3 41 -6 112 -6 157 l0 82 73 46 c39 25 75 45 80 46 4 1 7 -72 7 -161z
m-214 -120 c2 -128 0 -156 -13 -170 -9 -10 -22 -18 -30 -18 -7 0 -31 -11 -53
-25 l-40 -25 0 160 0 161 62 39 c34 21 64 37 67 35 2 -3 5 -73 7 -157z"/>
<path d="M4300 8905 c-46 -30 -86 -57 -87 -62 -2 -4 34 -31 80 -59 135 -85
115 -83 222 -17 52 31 91 61 87 65 -13 13 -204 128 -211 127 -3 0 -44 -25 -91
-54z"/>
<path d="M6435 8938 c14 -49 148 -305 200 -383 76 -115 184 -222 301 -298 119
-78 171 -104 183 -91 4 5 47 99 96 209 48 110 110 247 136 305 26 58 46 106
44 108 -1 2 -77 -47 -168 -107 -91 -61 -171 -111 -178 -111 -14 0 -473 290
-556 352 -61 44 -67 46 -58 16z"/>
<path d="M3165 8896 c-232 -68 -253 -77 -289 -116 -119 -132 -135 -267 -42
-361 58 -59 123 -90 217 -103 l78 -11 -42 -24 c-48 -27 -228 -151 -567 -391
-129 -91 -296 -208 -370 -260 -348 -241 -468 -325 -632 -443 l-177 -126 -63
63 c-45 45 -80 70 -123 87 -59 23 -66 24 -310 21 -137 -2 -264 -7 -281 -13
-36 -11 -89 -65 -132 -135 -32 -51 -32 -51 -32 -192 0 -153 5 -175 51 -233 45
-57 190 -126 289 -139 109 -13 331 2 397 28 116 44 180 100 209 181 7 20 13
71 14 113 l0 77 83 60 c140 103 477 340 587 414 125 84 448 315 837 599 155
114 290 209 300 212 10 3 63 8 118 10 184 7 265 57 342 212 37 74 46 103 45
139 -3 77 -20 177 -32 189 -8 8 -10 4 -5 -16 8 -30 -30 -111 -113 -246 -71
-115 -77 -117 -307 -117 -173 1 -195 3 -246 23 -148 59 -203 170 -144 289 45
90 79 118 185 152 146 46 270 79 270 71 0 -11 -120 -122 -178 -164 -59 -43
-57 -34 -26 -143 l15 -53 62 1 c34 1 52 4 40 6 -19 4 -15 13 51 101 l72 97 -5
85 c-5 65 -9 85 -21 87 -8 0 -64 -13 -125 -31z m-2030 -1700 c98 -36 182 -121
192 -195 13 -95 -54 -210 -150 -254 -80 -38 -144 -47 -323 -47 -163 0 -165 0
-239 32 -73 31 -93 48 -57 48 9 0 31 20 47 45 l30 45 165 0 164 0 42 -41 42
-41 12 73 c6 41 15 89 20 107 8 30 6 37 -18 58 -72 64 -74 65 -273 62 l-183
-3 -56 -125 c-32 -69 -64 -126 -72 -128 -15 -3 -36 52 -58 150 -10 47 -9 49
34 115 47 74 68 97 106 112 16 7 119 10 275 8 211 -3 258 -6 300 -21z"/>
<path d="M4685 8811 c-3 -6 -62 -44 -130 -86 -69 -42 -128 -82 -132 -88 -4 -6
-6 -53 -5 -104 2 -60 -1 -93 -8 -93 -6 0 -10 27 -8 73 1 74 -5 102 -23 92 -5
-4 -9 -2 -9 4 0 6 -18 20 -40 31 -22 11 -78 45 -125 75 -47 30 -88 55 -91 55
-4 0 -4 -33 0 -72 4 -40 7 -91 6 -113 l-1 -41 141 -78 c77 -42 144 -75 148
-72 10 6 12 -7 11 -106 0 -43 3 -78 6 -78 8 0 274 161 279 169 8 13 18 379 11
409 -7 32 -18 41 -30 23z"/>
<path d="M3571 8719 c-67 -67 -167 -183 -154 -178 11 4 207 219 199 219 -2 0
-22 -19 -45 -41z"/>
<path d="M3243 8543 c15 -2 37 -2 50 0 12 2 0 4 -28 4 -27 0 -38 -2 -22 -4z"/>
<path d="M3338 8533 c12 -2 30 -2 40 0 9 3 -1 5 -23 4 -22 0 -30 -2 -17 -4z"/>
<path d="M4120 8456 l0 -54 65 -36 c36 -20 68 -36 70 -36 3 0 5 21 5 48 0 51
4 46 -92 103 l-48 28 0 -53z"/>
<path d="M4283 8364 c-1 -41 1 -47 29 -62 17 -10 46 -27 64 -39 l34 -22 0 49
0 49 -59 35 c-32 20 -60 36 -63 36 -2 0 -5 -21 -5 -46z"/>
<path d="M8643 8101 c-54 -34 -58 -49 -63 -266 -5 -196 -6 -200 -27 -210 -29
-13 -29 -25 0 -25 27 0 139 72 167 107 18 23 20 40 20 192 0 176 -8 214 -45
219 -11 1 -34 -6 -52 -17z"/>
<path d="M2366 8013 c-3 -4 3 -13 15 -21 11 -8 22 -12 23 -11 5 7 -32 37 -38
32z"/>
<path d="M2325 7979 c-10 -15 3 -25 16 -12 7 7 7 13 1 17 -6 3 -14 1 -17 -5z"/>
<path d="M2356 7953 c-6 -14 -5 -15 5 -6 7 7 10 15 7 18 -3 3 -9 -2 -12 -12z"/>
<path d="M2280 7953 c0 -6 8 -17 18 -24 16 -13 16 -13 2 6 -8 11 -16 22 -17
24 -2 2 -3 0 -3 -6z"/>
<path d="M2207 7893 c3 -7 8 -11 11 -9 3 3 11 1 19 -6 11 -8 12 -7 8 5 -4 8
-15 17 -25 20 -13 3 -17 1 -13 -10z"/>
<path d="M2160 7846 c0 -2 7 -7 16 -10 8 -3 12 -2 9 4 -6 10 -25 14 -25 6z"/>
<path d="M1970 7756 c0 -2 8 -10 18 -17 15 -13 16 -12 3 4 -13 16 -21 21 -21
13z"/>
<path d="M1894 7681 c8 -7 22 -11 31 -7 23 9 9 26 -20 24 -22 -2 -23 -4 -11
-17z m33 3 c-3 -3 -12 -4 -19 -1 -8 3 -5 6 6 6 11 1 17 -2 13 -5z"/>
<path d="M1834 7661 c8 -12 46 -21 46 -11 0 8 -24 20 -41 20 -6 0 -8 -4 -5 -9z"/>
<path d="M1810 7625 c7 -8 16 -12 21 -9 13 8 1 24 -18 24 -13 0 -13 -3 -3 -15z"/>
<path d="M1762 7608 c5 -15 28 -23 28 -10 0 5 -7 13 -16 16 -10 4 -14 1 -12
-6z"/>
<path d="M9042 7563 l-72 -37 57 -16 c78 -22 110 -40 187 -105 85 -72 169
-190 190 -265 4 -14 -16 15 -46 63 -101 169 -264 291 -389 292 -49 0 -62 -4
-96 -31 -83 -67 -107 -132 -101 -274 7 -140 55 -269 144 -383 l45 -57 -1 -336
-1 -336 -54 -52 -55 -52 0 -451 c0 -262 4 -473 10 -504 16 -87 56 -152 140
-232 116 -111 180 -121 318 -51 90 45 132 81 167 145 l30 54 3 515 3 515 -51
50 -50 49 0 278 0 278 65 41 c130 82 170 159 168 324 -1 109 -20 175 -85 297
-42 78 -187 228 -253 261 -56 28 -148 57 -179 57 -12 0 -54 -17 -94 -37z m60
-205 c125 -66 232 -217 264 -371 32 -149 -11 -251 -121 -287 -50 -16 -92 -6
-162 39 -107 69 -204 205 -238 337 -26 100 -17 129 11 34 33 -113 77 -192 147
-267 72 -77 158 -123 228 -123 26 0 51 5 54 10 4 6 -8 10 -28 10 -55 0 -150
54 -210 121 -82 90 -147 238 -147 334 0 54 28 130 60 160 16 16 30 25 30 21 0
-4 8 -2 18 3 25 15 28 14 94 -21z m-131 -1332 c11 -14 59 -47 107 -74 81 -47
93 -50 179 -57 50 -3 103 -10 118 -13 24 -7 22 -10 -42 -47 -85 -49 -126 -51
-203 -11 -173 91 -197 105 -260 154 -5 4 69 72 78 72 2 0 13 -11 23 -24z m90
-322 c60 -31 109 -60 109 -65 0 -10 -205 93 -224 112 -21 19 10 7 115 -47z m0
-116 c55 -28 99 -55 99 -60 0 -12 5 -14 -113 50 -89 49 -108 62 -91 62 4 0 51
-23 105 -52z m-48 -89 c72 -37 128 -71 123 -76 -4 -4 -170 80 -185 93 -14 12
26 1 62 -17z m65 -150 c52 -28 91 -53 88 -56 -3 -3 -49 18 -103 47 -111 60
-112 60 -92 60 8 0 56 -23 107 -51z m30 -327 c37 -84 38 -108 3 -143 -26 -25
-37 -30 -59 -24 -54 13 -122 101 -122 157 0 21 2 20 16 -8 20 -42 61 -80 106
-98 31 -13 38 -13 48 -1 9 11 6 22 -14 52 -28 43 -41 86 -32 108 9 25 32 7 54
-43z"/>
<path d="M1725 7570 c10 -11 22 -17 27 -14 5 3 1 12 -9 20 -27 20 -39 17 -18
-6z"/>
<path d="M1795 7580 c-3 -5 -2 -10 4 -10 5 0 13 5 16 10 3 6 2 10 -4 10 -5 0
-13 -4 -16 -10z"/>
<path d="M1665 7550 c-7 -12 31 -32 53 -28 13 3 9 8 -15 21 -18 10 -34 13 -38
7z"/>
<path d="M1618 7513 c7 -3 16 -2 19 1 4 3 -2 6 -13 5 -11 0 -14 -3 -6 -6z"/>
<path d="M1655 7500 c3 -5 10 -10 16 -10 5 0 9 5 9 10 0 6 -7 10 -16 10 -8 0
-12 -4 -9 -10z"/>
<path d="M1600 7476 c6 -8 18 -12 27 -9 12 5 12 7 1 14 -7 5 -19 9 -27 9 -11
0 -11 -3 -1 -14z"/>
<path d="M1545 7460 c-3 -5 -2 -10 4 -10 5 0 18 -3 28 -7 16 -6 16 -5 4 10
-15 19 -27 22 -36 7z"/>
<path d="M3990 7290 l0 -149 93 -47 c50 -25 101 -53 112 -60 42 -30 48 -20 41
69 -3 45 -5 112 -6 149 l0 66 -109 61 c-60 34 -114 61 -120 61 -7 0 -11 -49
-11 -150z m200 -87 l0 -94 -62 35 c-69 39 -64 25 -60 157 l2 60 60 -32 60 -32
0 -94z"/>
<path d="M1498 7423 c7 -3 16 -2 19 1 4 3 -2 6 -13 5 -11 0 -14 -3 -6 -6z"/>
<path d="M1538 7423 c6 -2 18 -2 25 0 6 3 1 5 -13 5 -14 0 -19 -2 -12 -5z"/>
<path d="M2475 7228 c-38 -23 -73 -46 -77 -51 -3 -6 -38 10 -80 37 l-73 47 -3
-113 c-3 -129 -8 -120 102 -187 l55 -33 63 43 c98 65 108 77 108 123 0 64 -12
176 -19 176 -3 0 -37 -19 -76 -42z"/>
<path d="M4098 7025 c67 -36 128 -65 135 -65 6 0 -44 30 -111 65 -68 36 -129
65 -135 65 -7 0 43 -29 111 -65z"/>
<path d="M3630 6445 l0 -464 68 -37 c37 -21 136 -77 220 -126 l152 -87 0 467
0 467 -28 16 c-15 9 -110 64 -211 122 -101 59 -188 107 -192 107 -5 0 -9 -209
-9 -465z m170 -25 c0 -4 43 -29 96 -55 65 -33 92 -51 85 -58 -7 -7 -23 -2 -51
16 -46 31 -146 77 -166 77 -17 0 -18 27 -1 33 15 5 37 -2 37 -13z m92 -399
c85 -51 110 -71 88 -71 -23 0 -239 135 -227 142 6 4 21 1 32 -6 11 -7 59 -36
107 -65z"/>
<path d="M3117 6769 c-11 -6 -29 -9 -41 -7 -17 3 -22 0 -21 -14 2 -24 34 -47
66 -48 22 0 25 4 27 40 3 42 -1 46 -31 29z"/>
<path d="M4220 6725 l-65 -46 4 -189 c3 -170 1 -190 -13 -190 -15 0 -15 -2 -1
-24 14 -21 16 -63 13 -300 -3 -302 -5 -296 55 -254 17 12 27 17 23 10 -4 -7
-3 -12 3 -12 5 0 12 4 15 9 9 14 60 0 79 -23 15 -18 15 -14 -3 28 -11 27 -18
51 -16 54 3 2 33 -11 68 -31 35 -19 153 -85 262 -146 110 -61 203 -111 208
-111 4 0 8 29 8 65 0 37 -4 65 -10 65 -5 0 -10 -20 -10 -45 0 -25 -3 -45 -6
-45 -8 0 -39 17 -326 180 -202 114 -218 125 -218 151 0 15 -3 34 -6 42 -3 9 6
23 25 37 31 21 31 21 59 2 53 -38 446 -262 459 -262 10 0 13 54 12 273 -1 149
-4 283 -8 295 -4 17 -44 46 -146 104 -77 44 -181 104 -231 134 l-91 53 -6 54
c-5 51 -28 108 -59 150 -12 16 -18 15 -78 -28z m348 -350 c9 -8 12 -36 10 -93
l-3 -81 -77 45 -78 46 0 85 0 85 68 -37 c37 -21 73 -43 80 -50z m153 -82 l69
-37 0 -89 0 -89 -32 21 c-18 12 -54 34 -80 49 l-48 27 0 78 c0 50 4 77 11 77
7 0 43 -17 80 -37z m-203 -109 l62 -35 0 -114 c0 -86 -3 -115 -12 -114 -7 0
-42 17 -78 38 l-65 37 -3 118 c-3 136 -11 130 96 70z m204 -114 l68 -41 0
-120 c0 -66 -3 -118 -7 -116 -5 2 -41 23 -80 47 l-73 42 0 114 c0 82 3 114 12
114 6 0 42 -18 80 -40z m-432 -294 c0 -2 -8 -10 -17 -17 -16 -13 -17 -12 -4 4
13 16 21 21 21 13z"/>
<path d="M6880 6708 c1 -40 13 -57 66 -90 l40 -26 52 32 c45 27 51 35 52 64 0
42 -18 49 -67 23 l-39 -20 -43 25 c-56 31 -61 30 -61 -8z"/>
<path d="M7253 6535 c-14 -10 -20 -22 -16 -33 5 -13 3 -14 -7 -5 -18 16 -81
-22 -73 -45 3 -12 2 -14 -4 -4 -8 10 -27 4 -91 -25 l-81 -38 0 -115 0 -115
230 -134 c126 -74 232 -138 235 -143 10 -17 34 -6 185 85 l154 92 3 123 c2 94
0 122 -10 122 -7 0 -80 -38 -162 -85 -81 -47 -153 -85 -158 -85 -23 0 -197
106 -193 117 2 7 -1 10 -8 8 -14 -6 -69 28 -67 41 0 5 -8 10 -20 12 -11 2 -20
7 -20 12 0 4 -14 13 -32 19 -17 6 -29 13 -26 16 3 3 17 1 32 -5 15 -5 38 -10
52 -10 23 0 24 3 24 69 0 43 5 73 12 77 6 4 13 3 15 -3 6 -18 53 -2 53 18 0
11 -5 19 -11 19 -8 0 -8 5 1 15 16 19 10 19 -17 0z"/>
<path d="M2590 6355 l0 -94 127 -76 c71 -42 137 -78 148 -81 21 -5 229 110
255 141 9 10 10 40 5 109 -6 82 -10 94 -24 89 -9 -4 -67 -37 -129 -75 l-114
-69 -127 75 c-70 42 -130 76 -134 76 -4 0 -7 -43 -7 -95z"/>
<path d="M2207 6263 c-4 -3 -7 -32 -7 -64 l0 -58 76 -46 76 -46 66 39 66 39
-3 64 c-1 35 -4 66 -6 67 -2 2 -33 -12 -69 -31 -36 -19 -69 -31 -73 -27 -23
20 -121 69 -126 63z"/>
<path d="M862 6140 c2 -68 1 -75 -16 -72 -19 4 -56 -24 -56 -42 0 -5 -12 -27
-26 -48 -21 -30 -31 -37 -48 -32 -21 6 -21 6 1 -15 26 -24 78 -30 70 -7 -3 8
0 19 6 24 11 9 33 7 137 -13 27 -5 39 -3 49 9 7 9 28 16 46 16 18 0 38 6 44
14 11 12 6 15 -31 18 l-43 3 3 56 c4 61 -13 90 -24 42 -19 -84 -21 -88 -42
-91 -26 -4 -28 -20 -4 -39 15 -13 15 -13 -8 -7 -38 10 -42 18 -25 50 19 37 19
71 0 108 -9 16 -13 36 -10 46 3 9 -2 25 -10 36 -14 17 -15 13 -13 -56z"/>
<path d="M3300 6081 l0 -108 44 -23 43 -24 82 48 c44 26 81 53 81 60 0 6 -56
44 -125 83 l-125 72 0 -108z"/>
<path d="M7922 6151 c-11 -44 -8 -46 36 -35 25 7 29 36 7 54 -8 7 -15 9 -15 4
0 -5 -4 -3 -9 4 -6 10 -11 1 -19 -27z"/>
<path d="M698 6138 c-20 -16 -68 -87 -68 -101 0 -12 58 -1 77 15 11 9 11 13 2
19 -19 11 9 40 35 37 15 -2 21 2 21 17 0 24 -42 32 -67 13z"/>
<path d="M8080 5981 c-146 -86 -382 -226 -525 -311 -248 -145 -539 -318 -1140
-673 -148 -88 -373 -221 -500 -297 -621 -370 -863 -510 -880 -510 -21 0 -220
114 -470 268 -93 58 -260 159 -370 225 -110 66 -247 149 -305 185 -58 36 -400
243 -760 460 -360 217 -747 451 -860 520 -379 231 -462 282 -463 282 -1 0 -1
-443 1 -984 l2 -984 28 -18 c15 -10 241 -147 502 -304 261 -158 525 -318 585
-355 61 -37 148 -91 195 -118 47 -28 173 -105 280 -172 337 -210 981 -605
1420 -872 63 -38 148 -91 188 -116 l72 -47 88 44 c48 24 215 121 372 216 562
340 1613 972 2035 1223 510 303 764 457 769 466 9 15 18 871 9 871 -5 0 -48
-24 -95 -54 -48 -30 -107 -66 -131 -80 l-44 -26 4 24 c4 17 10 23 21 19 10 -4
13 -2 8 5 -4 7 -2 12 3 12 6 0 11 -5 11 -10 0 -7 7 -7 20 0 11 6 17 16 14 22
-4 7 -3 8 5 4 15 -9 73 32 65 46 -4 7 -2 8 4 4 11 -7 44 8 70 31 7 7 21 17 30
22 15 8 17 57 17 575 1 311 -2 566 -5 566 -3 0 -124 -72 -270 -159z m-6129
-294 c18 -13 14 -12 -16 3 -22 12 -51 30 -65 41 -21 17 -18 17 16 -3 22 -12
52 -31 65 -41z m6010 -149 l22 -33 -31 29 c-34 32 -37 36 -23 36 5 0 20 -15
32 -32z m-5959 -43 c40 -25 68 -45 63 -45 -12 0 -153 89 -143 90 5 0 40 -20
80 -45z m5646 -127 c-6 -18 -28 -21 -28 -4 0 9 7 16 16 16 9 0 14 -5 12 -12z
m-25 -60 c-2 -24 4 -42 22 -63 18 -21 25 -25 25 -13 0 35 82 -16 95 -60 7 -23
2 -21 -77 20 -89 46 -101 64 -79 121 14 36 18 34 14 -5z m215 0 c6 19 51 -8
49 -29 -2 -24 -2 -24 -54 6 -44 26 -61 45 -21 24 16 -8 23 -9 26 -1z m-5197
-119 c4 -24 8 -83 9 -130 0 -69 3 -89 18 -101 23 -20 199 -118 212 -118 6 0
10 46 10 122 l0 122 30 -29 c29 -28 30 -32 30 -116 0 -104 -9 -133 -48 -153
-27 -14 -32 -13 -102 25 -124 68 -181 110 -196 145 -10 23 -14 78 -14 176 l0
142 21 -21 c12 -11 25 -40 30 -64z m-661 10 c12 -16 20 -33 17 -35 -3 -3 -10
3 -16 14 -6 11 -18 28 -27 36 -8 9 -11 16 -5 16 5 0 19 -14 31 -31z m-10 -185
c0 -2 -16 6 -35 18 -19 13 -35 27 -35 31 0 4 16 -4 35 -19 19 -14 35 -28 35
-30z m6370 11 c0 -2 -10 -9 -22 -15 -22 -11 -22 -10 -4 4 21 17 26 19 26 11z
m-5889 -79 l33 -14 -33 -20 c-18 -11 -42 -18 -54 -15 -16 3 -18 2 -9 -5 10 -7
2 -16 -31 -36 -25 -14 -49 -26 -54 -26 -4 0 0 5 10 11 12 7 15 15 8 26 -14 27
-1 49 42 71 51 25 47 25 88 8z m596 -113 c-35 -60 -93 -155 -128 -213 -36 -58
-84 -139 -106 -180 -23 -41 -53 -90 -67 -109 -51 -69 -24 -12 67 140 143 241
231 389 262 444 16 27 30 44 33 37 2 -6 -25 -60 -61 -119z m362 31 c5 -4 -23
-48 -356 -552 -295 -445 -315 -472 -335 -461 -11 6 -60 37 -107 68 -48 31
-135 85 -194 121 -58 36 -107 70 -107 76 0 6 12 11 28 11 26 0 126 53 147 79
14 16 226 154 238 154 5 0 -7 -28 -26 -62 -19 -35 -39 -62 -44 -61 -6 1 -8 -9
-5 -22 4 -21 8 -24 31 -19 38 10 35 7 92 99 29 48 56 82 62 78 6 -4 8 0 4 10
-6 16 7 31 28 32 6 1 9 7 7 14 -1 7 2 10 8 6 5 -3 10 -2 10 2 0 5 9 14 20 20
16 11 18 10 14 -2 -4 -8 -11 -15 -16 -15 -6 0 -5 -6 2 -15 7 -8 19 -15 28 -15
14 0 14 -2 0 -17 -9 -10 -19 -28 -22 -39 -4 -12 -18 -34 -31 -50 -14 -16 -25
-35 -25 -41 0 -7 -4 -13 -10 -13 -5 0 -10 -4 -10 -10 0 -23 19 -6 60 53 24 34
75 109 115 167 210 310 270 398 292 428 l25 33 36 -27 c21 -15 39 -29 41 -30z
m-1427 -126 c32 -60 67 -159 53 -148 -8 6 -24 42 -36 78 -16 49 -33 78 -63
106 l-41 40 35 -21 c19 -12 43 -36 52 -55z m6006 -495 c-33 -67 -64 -115 -84
-131 -28 -22 -226 -141 -464 -278 -70 -41 -106 -51 -64 -19 19 15 19 15 -1 9
-19 -5 -19 -5 -2 6 10 6 25 9 34 6 11 -5 13 -2 8 11 -4 10 -7 26 -7 36 0 9 -4
17 -9 17 -6 0 -8 4 -5 9 3 5 -1 12 -10 15 -10 4 -13 2 -9 -7 4 -6 0 -4 -9 7
-10 12 -23 17 -40 14 -39 -8 -23 7 61 52 42 24 94 55 115 70 42 31 41 34 -35
79 -21 13 -36 25 -33 28 2 3 62 -25 132 -61 147 -76 174 -80 250 -36 92 52
169 185 180 308 6 80 -11 124 -65 159 -75 50 -170 13 -254 -99 -82 -110 -93
-281 -21 -353 13 -13 14 -17 4 -13 -22 7 -57 74 -65 122 -7 46 -10 48 -198
153 l-98 55 7 37 c16 98 101 214 187 255 88 43 123 43 203 3 39 -20 97 -52
130 -71 l59 -36 5 86 5 87 60 -46 60 -45 4 61 c3 34 8 -39 13 -162 l7 -224
-51 -104z m-4410 480 c105 -58 226 -134 238 -149 9 -11 4 -22 -22 -48 -34 -34
-43 -56 -24 -56 5 0 0 -15 -11 -34 -11 -19 -26 -33 -32 -31 -7 3 -29 -19 -50
-49 l-38 -53 -127 76 c-159 97 -202 124 -202 132 0 9 107 79 121 79 6 0 68
-33 138 -74 69 -41 133 -78 142 -81 21 -8 46 22 33 41 -5 8 -79 57 -164 108
-84 51 -156 98 -158 104 -3 9 72 72 85 72 3 0 35 -17 71 -37z m-1174 -115 c-5
-9 -2 -9 9 1 11 9 17 10 17 2 0 -6 3 -10 8 -9 4 1 17 -2 30 -6 20 -7 4 -19
-128 -97 -84 -49 -155 -89 -159 -89 -3 0 -11 11 -18 25 -13 30 0 43 25 23 15
-12 16 -11 4 4 -14 18 2 30 157 125 61 37 65 38 55 21z m4546 -130 c63 -39
124 -77 134 -87 21 -18 56 -87 56 -111 0 -8 -9 3 -19 25 -37 82 -119 120 -208
96 -44 -12 -135 -77 -175 -126 -65 -79 -104 -172 -118 -284 -12 -91 1 -147 47
-208 32 -42 32 -43 7 -26 -31 20 -74 105 -74 145 0 31 -22 50 -144 125 -43 26
-84 56 -90 65 -15 24 6 118 45 196 36 74 149 193 223 237 27 16 70 34 95 41
54 14 50 15 221 -88z m-5031 -52 c19 -14 30 -26 24 -26 -11 0 -93 57 -93 65 0
8 28 -8 69 -39z m1058 7 c-3 -2 -14 0 -24 7 -16 10 -16 11 0 6 9 -3 17 0 18 7
0 8 2 8 6 -1 3 -7 3 -16 0 -19z m530 -125 c94 -61 96 -61 112 -41 15 19 51 38
51 27 0 -7 -52 -84 -57 -84 -2 0 1 9 7 20 20 38 1 20 -41 -37 -23 -32 -43 -59
-44 -61 -2 -3 -209 119 -301 178 l-46 29 29 17 c15 9 44 27 63 39 l35 22 48
-24 c27 -13 92 -52 144 -85z m667 -195 c7 -196 4 -237 -19 -263 -8 -9 -12 -20
-8 -24 5 -4 1 -6 -7 -4 -8 1 -14 -3 -12 -9 1 -7 -1 -13 -5 -14 -45 -4 -69 -13
-128 -50 -39 -24 -71 -47 -73 -51 -2 -5 -8 -8 -14 -8 -5 0 -23 -10 -40 -21
l-30 -22 6 -165 c3 -91 8 -167 11 -170 3 -3 13 2 23 11 21 19 4 29 308 -165
100 -64 192 -122 205 -129 21 -11 22 -10 12 3 -7 8 -16 37 -19 64 -9 81 -13
92 -45 129 -29 32 -34 34 -53 22 -30 -18 -83 -40 -71 -29 6 5 34 26 64 45 l55
36 35 -21 c20 -12 43 -26 53 -32 14 -8 16 -27 14 -129 -1 -65 2 -121 6 -123 4
-3 6 -33 3 -67 -3 -49 -8 -65 -26 -80 -32 -26 -55 -17 -189 68 -129 82 -464
289 -525 324 -114 67 -357 223 -353 226 2 2 44 23 94 48 l91 45 114 -69 c62
-38 117 -69 121 -69 5 0 8 46 8 103 1 57 6 115 13 131 9 21 54 54 167 125
l155 97 3 235 3 234 23 -27 c22 -24 24 -37 30 -205z m2973 85 c-2 -13 -4 -5
-4 17 -1 22 1 32 4 23 2 -10 2 -28 0 -40z m-3785 -45 c75 -43 137 -83 138 -88
0 -6 -18 -28 -40 -50 -21 -21 -37 -42 -34 -46 2 -4 0 -10 -6 -14 -16 -10 -330
188 -330 208 0 10 103 67 119 67 8 0 77 -35 153 -77z m1053 -36 c7 -16 10 -56
8 -95 -7 -101 0 -110 126 -182 108 -60 111 -63 111 -96 l0 -35 -70 37 c-103
54 -193 117 -207 145 -8 15 -13 71 -13 153 0 118 1 127 17 115 9 -8 21 -27 28
-42z m-2285 -19 l25 -20 -29 17 c-16 10 -44 26 -63 37 -18 11 -33 22 -33 25 0
7 71 -35 100 -59z m1980 -6 c0 -18 -227 -155 -241 -146 -12 7 6 21 131 96 95
58 110 65 110 50z m-1925 -43 c9 -17 15 -33 13 -35 -3 -2 -12 12 -21 31 -21
43 -13 47 8 4z m2625 -36 c47 -30 100 -60 119 -69 18 -8 31 -18 28 -21 -9 -9
-257 139 -257 153 0 3 6 2 13 -3 6 -4 50 -31 97 -60z m-1575 -38 c76 -47 140
-85 143 -85 3 0 18 15 33 33 15 17 30 30 33 26 6 -6 -81 -139 -91 -139 -4 0
-2 5 5 12 7 7 12 19 12 27 0 8 -16 -8 -35 -35 -20 -27 -40 -48 -46 -46 -24 6
-319 205 -319 216 0 9 102 73 121 75 3 1 68 -37 144 -84z m590 -52 c-16 -14
-29 -34 -27 -44 2 -10 -11 -28 -31 -43 -44 -34 -58 -34 -18 0 21 18 31 35 31
55 0 21 7 32 28 43 42 23 50 18 17 -11z m3465 3 c0 -2 -12 -11 -27 -20 l-28
-17 24 20 c23 21 31 25 31 17z m-828 -108 c166 -96 213 -130 234 -170 l17 -33
-30 32 c-40 43 -73 50 -131 27 -90 -34 -191 -163 -208 -266 -4 -21 -9 -38 -11
-38 -8 0 -123 69 -230 137 -116 74 -114 70 -65 167 45 91 202 215 273 216 14
0 82 -33 151 -72z m-3413 21 c43 -25 189 -118 210 -135 1 -1 -4 -13 -13 -26
-21 -29 -21 -44 1 -27 15 13 15 12 2 -8 -8 -13 -16 -18 -20 -12 -3 6 -16 -5
-29 -26 -12 -20 -28 -34 -34 -32 -18 7 -288 174 -311 192 -11 9 -15 18 -10 21
6 2 37 22 70 44 33 22 64 40 69 40 5 0 34 -14 65 -31z m4148 16 c0 -8 -4 -12
-9 -9 -5 3 -6 10 -3 15 9 13 12 11 12 -6z m-2294 -98 c81 -51 108 -77 35 -33
-24 14 -76 45 -115 68 -40 24 -73 47 -73 51 0 9 27 -6 153 -86z m2242 73 c-3
-5 -1 -10 5 -10 6 0 8 -5 4 -11 -4 -8 -9 -7 -15 2 -6 10 -9 11 -9 2 0 -7 -10
-13 -22 -13 -21 0 -21 2 7 20 34 23 39 24 30 10z m-67 -55 c1 -14 -3 -25 -8
-25 -5 0 -7 7 -4 15 4 10 2 13 -7 10 -8 -3 -15 -16 -15 -30 -2 -22 2 -25 32
-25 27 0 34 4 34 20 0 17 7 20 45 20 25 0 45 -4 45 -9 0 -5 9 -12 20 -16 19
-6 56 12 94 47 22 20 36 23 36 9 0 -16 -123 -81 -135 -71 -6 5 -17 5 -25 0 -8
-5 -18 -6 -22 -4 -4 3 -5 -2 -2 -10 8 -20 9 -20 28 0 9 8 16 11 16 6 0 -10
-60 -52 -74 -52 -4 0 -4 5 0 12 4 7 3 8 -5 4 -6 -4 -9 -11 -6 -15 8 -14 -211
-142 -232 -135 -13 4 -14 3 -5 -4 10 -7 -13 -25 -87 -71 -56 -35 -103 -67
-107 -72 -3 -5 -9 -9 -14 -9 -5 0 3 20 16 45 19 33 26 61 27 108 l2 65 45 23
c25 13 56 31 70 40 88 58 124 78 131 73 5 -3 9 -1 9 4 0 5 12 8 28 6 15 -2 19
-1 9 2 -15 5 -12 10 20 35 21 15 38 29 38 29 0 0 2 -11 3 -25z m212 11 c0 -3
-4 -8 -10 -11 -5 -3 -10 -1 -10 4 0 6 5 11 10 11 6 0 10 -2 10 -4z m-4007 -71
c-3 -9 -8 -14 -10 -11 -3 3 -2 9 2 15 9 16 15 13 8 -4z m1464 -208 c65 -41
171 -107 235 -146 65 -40 132 -86 150 -104 18 -18 29 -25 25 -14 -6 16 7 25
16 10 2 -5 2 -2 0 5 -2 8 6 16 17 19 11 3 20 10 20 15 0 6 -12 3 -26 -7 -14
-9 -28 -14 -31 -11 -5 4 69 46 82 46 3 0 3 -5 -1 -12 -4 -7 -3 -8 5 -4 6 4 9
11 6 15 -2 5 17 20 43 34 l48 26 -1 -23 c-2 -31 -14 -48 -32 -42 -8 3 -11 2
-8 -4 8 -12 -30 -31 -48 -24 -8 3 -18 1 -22 -5 -3 -7 0 -8 9 -5 39 15 8 -9
-81 -62 -93 -55 -97 -57 -122 -42 -14 8 -143 86 -286 172 -143 86 -264 158
-270 161 -7 3 -7 7 0 10 6 3 35 21 65 40 30 19 63 32 72 30 10 -1 71 -37 135
-78z m1312 -126 c124 -76 311 -181 322 -181 26 0 -3 -22 -114 -85 -67 -38
-185 -108 -262 -155 -307 -189 -316 -193 -354 -144 -12 15 -21 32 -21 39 0 24
-42 50 -81 51 -22 0 -35 -2 -30 -6 9 -5 -78 -62 -228 -147 -52 -31 -99 -41
-114 -27 -8 8 20 30 108 84 123 75 155 92 169 87 23 -9 41 11 42 45 0 18 1 68
2 111 l2 78 43 -29 c145 -98 266 -163 314 -169 47 -5 52 -3 91 32 23 20 54 63
71 95 25 51 30 56 36 37 4 -15 8 -18 12 -9 4 10 11 8 28 -8 14 -13 32 -20 47
-18 20 3 15 9 -39 48 -48 35 -62 50 -61 70 0 14 -3 34 -7 44 -7 15 -5 17 6 11
8 -4 1 6 -15 23 -30 32 -49 44 -26 17 11 -13 8 -14 -18 -9 -45 9 -75 -1 -111
-38 -66 -67 -102 -191 -72 -246 6 -12 9 -22 6 -22 -3 0 -14 20 -25 45 -15 34
-32 53 -71 77 -50 32 -51 33 -45 71 13 79 69 152 148 193 l32 16 -23 13 c-23
12 -22 13 30 44 69 40 86 37 208 -38z m-669 24 c0 -2 -10 -9 -22 -15 -22 -11
-22 -10 -4 4 21 17 26 19 26 11z m30 -25 c-35 -24 -54 -31 -30 -11 14 11 30
21 35 21 6 0 3 -5 -5 -10z m917 -82 c-3 -8 -6 -5 -6 6 -1 11 2 17 5 13 3 -3 4
-12 1 -19z m-1719 -174 c-4 -3 -12 5 -18 18 -12 22 -12 22 6 6 10 -10 15 -20
12 -24z m150 -221 c45 -29 82 -55 82 -57 0 -7 -162 94 -180 112 -20 20 -9 14
98 -55z m113 -133 c12 -33 26 -60 30 -60 5 0 9 -5 9 -11 0 -29 -25 4 -46 61
-26 72 -26 70 -20 70 3 0 15 -27 27 -60z m-160 -157 c13 -16 12 -17 -3 -4 -10
7 -18 15 -18 17 0 8 8 3 21 -13z m39 -78 c0 -5 -5 -3 -10 5 -5 8 -10 20 -10
25 0 6 5 3 10 -5 5 -8 10 -19 10 -25z"/>
<path d="M2341 4881 c-7 -5 -9 -11 -5 -14 5 -3 15 1 22 9 14 16 5 18 -17 5z"/>
<path d="M2506 4211 c-5 -7 234 -156 239 -149 63 94 97 149 94 152 -2 2 -26
-25 -54 -60 -27 -34 -55 -63 -61 -63 -16 -1 -65 50 -58 60 10 17 -22 36 -64
41 -23 2 -44 -1 -46 -7 -3 -6 -5 -5 -5 2 -1 16 -38 36 -45 24z"/>
<path d="M7041 3624 c0 -11 3 -14 6 -6 3 7 2 16 -1 19 -3 4 -6 -2 -5 -13z"/>
<path d="M6960 3588 c0 -10 3 -18 8 -18 12 1 58 29 47 29 -5 1 -17 -3 -25 -9
-9 -6 -17 -5 -22 3 -5 8 -8 6 -8 -5z"/>
<path d="M5290 3342 c0 -5 7 -9 15 -9 8 0 15 4 15 9 0 4 -7 8 -15 8 -8 0 -15
-4 -15 -8z"/>
<path d="M6113 3260 c-3 -11 -13 -20 -22 -20 -9 0 -22 -9 -29 -20 -7 -11 -8
-20 -2 -20 13 0 140 63 140 70 0 3 -18 6 -41 7 -34 2 -42 -1 -46 -17z"/>
<path d="M5366 2825 c-4 -13 -2 -14 14 -5 23 13 26 20 6 20 -8 0 -16 -7 -20
-15z"/>
<path d="M2466 6031 c-21 -23 -8 -34 29 -25 28 7 31 14 13 32 -16 16 -22 15
-42 -7z"/>
<path d="M1185 5959 c-49 -33 -147 -94 -217 -136 l-128 -77 0 -288 c0 -161 4
-288 9 -288 11 0 323 187 405 243 l59 40 -6 221 c-4 122 -7 249 -7 284 0 43
-4 62 -12 61 -7 0 -53 -27 -103 -60z"/>
<path d="M370 6000 c0 -5 5 -10 11 -10 5 0 7 5 4 10 -3 6 -8 10 -11 10 -2 0
-4 -4 -4 -10z"/>
<path d="M2790 5966 c-45 -24 -45 -24 -82 -5 -20 10 -40 19 -43 19 -3 0 -5
-21 -3 -46 3 -43 6 -47 51 -72 l47 -27 48 27 c46 26 47 28 47 74 0 26 -4 49
-10 50 -5 2 -30 -8 -55 -20z m-103 -48 c-3 -8 -6 -5 -6 6 -1 11 2 17 5 13 3
-3 4 -12 1 -19z"/>
<path d="M7093 5870 c-40 -18 -55 -42 -34 -54 22 -14 137 46 126 65 -10 14
-46 10 -92 -11z"/>
<path d="M3007 5862 c-24 -27 -21 -49 8 -56 24 -6 65 7 65 21 0 6 -48 53 -54
53 -2 0 -10 -8 -19 -18z"/>
<path d="M7151 5782 c-19 -13 -46 -17 -105 -17 l-81 0 -145 -75 c-79 -41 -189
-98 -245 -127 -72 -37 -103 -49 -112 -41 -15 12 -29 -14 -18 -32 12 -20 82
-11 113 15 31 26 57 32 67 15 3 -6 21 0 43 14 21 13 60 35 87 50 28 15 65 38
84 51 18 14 38 22 44 18 5 -3 7 -1 3 5 -6 10 30 28 47 24 4 -1 7 3 7 9 0 5 5
7 10 4 6 -3 10 -2 10 3 0 10 3 11 97 14 79 3 125 27 131 67 4 25 -5 26 -37 3z"/>
<path d="M4250 5710 c0 -5 12 -10 28 -10 21 0 24 2 12 10 -20 13 -40 13 -40 0z"/>
<path d="M7238 5706 c-31 -9 -35 -14 -27 -29 18 -31 109 -11 109 24 0 22 -24
23 -82 5z"/>
<path d="M6595 5440 c-55 -33 -107 -60 -115 -60 -8 0 -55 24 -105 54 l-90 54
-3 -71 c-3 -82 -13 -71 125 -153 l91 -55 92 51 c50 29 102 62 116 74 25 20 25
25 19 94 -5 43 -12 72 -19 72 -6 -1 -56 -28 -111 -60z"/>
<path d="M5710 5158 l0 -93 117 -74 118 -74 60 33 c33 18 84 48 113 66 58 38
58 37 45 167 -4 43 -10 67 -18 67 -7 0 -56 -27 -108 -60 -53 -33 -101 -60
-108 -60 -7 0 -56 27 -109 60 -53 33 -100 60 -104 60 -3 0 -6 -42 -6 -92z"/>
<path d="M4355 5031 c-7 -31 17 -101 34 -101 14 0 14 30 0 86 -13 51 -25 56
-34 15z"/>
<path d="M4476 5038 c10 -34 42 -96 53 -103 15 -9 -5 50 -29 90 -25 40 -34 45
-24 13z"/>
<path d="M4197 4922 c-12 -18 14 -81 44 -106 60 -51 99 -54 234 -20 13 3 56
-15 115 -48 90 -51 95 -55 101 -92 7 -46 9 -47 203 -168 184 -114 262 -138
313 -96 18 14 16 73 -2 108 l-16 30 34 0 c18 0 41 6 51 13 16 12 17 18 7 48
-13 39 -4 33 -187 135 -149 82 -184 98 -184 85 0 -5 54 -39 120 -77 73 -42
118 -74 115 -81 -2 -7 5 -17 15 -23 19 -10 25 -4 21 23 -2 13 16 8 40 -12 l23
-18 -21 -12 c-29 -15 -51 -6 -176 73 -56 35 -117 71 -134 80 -35 17 -41 31
-20 39 7 3 5 6 -5 6 -28 2 -48 -36 -36 -69 7 -23 38 -46 137 -104 146 -86 191
-120 191 -147 0 -42 -76 -52 -143 -18 -23 12 -109 64 -190 117 -143 92 -147
95 -133 116 13 21 11 24 -57 66 -185 111 -185 112 -220 93 -48 -25 -148 -24
-184 3 -15 11 -33 31 -39 43 -7 13 -14 19 -17 13z"/>
<path d="M5616 4890 c-37 -22 -72 -40 -76 -40 -5 0 -36 16 -69 34 -34 19 -61
31 -61 25 0 -5 4 -9 9 -9 6 0 7 -10 4 -22 -3 -13 -5 -33 -6 -44 -1 -15 -6 -20
-16 -16 -32 12 9 -26 76 -69 l65 -43 54 29 c98 53 103 61 96 133 l-7 62 -69
-40z"/>
<path d="M730 4656 c-68 -41 -126 -79 -128 -85 -2 -6 5 -14 15 -18 10 -4 69
-37 131 -75 62 -37 114 -68 116 -68 1 0 62 36 134 79 l133 80 -58 37 c-90 58
-203 124 -211 123 -4 0 -63 -33 -132 -73z"/>
<path d="M4763 4713 c-23 -4 -22 -5 6 -29 16 -13 31 -24 34 -24 3 0 28 -15 54
-32 26 -18 84 -54 128 -80 44 -26 74 -48 68 -48 -41 -1 18 -40 60 -40 28 0 54
37 37 54 -8 8 -13 8 -19 -2 -10 -17 -24 -11 -169 76 -80 48 -126 83 -134 100
-14 28 -27 33 -65 25z"/>
<path d="M5060 4696 c0 -3 9 -10 20 -16 11 -6 20 -8 20 -6 0 3 -9 10 -20 16
-11 6 -20 8 -20 6z"/>
<path d="M1355 4511 c-16 -10 -111 -68 -210 -128 -99 -61 -204 -125 -232 -143
l-53 -33 0 -298 c0 -241 3 -299 13 -299 17 0 207 109 387 222 l135 84 3 307
c1 169 -1 307 -5 307 -5 0 -21 -9 -38 -19z"/>
<path d="M9144 4187 l-101 -61 106 -66 106 -67 96 59 c53 32 102 58 109 58 26
0 -12 29 -110 84 -54 31 -100 56 -102 55 -1 0 -49 -28 -104 -62z"/>
<path d="M9620 4038 c-52 -33 -158 -98 -235 -143 l-140 -82 -3 -356 c-1 -197
1 -357 4 -357 16 0 391 219 467 272 l27 19 0 355 c0 277 -3 354 -12 353 -7 0
-56 -27 -108 -61z"/>
<path d="M1714 3529 c-239 -149 -284 -178 -284 -187 1 -4 47 -34 103 -67 56
-33 116 -68 133 -79 31 -18 32 -18 60 1 76 53 226 143 237 143 6 0 58 -28 114
-63 57 -34 168 -102 249 -151 l145 -88 66 43 65 44 -5 98 c-2 53 -7 100 -11
104 -4 4 -20 2 -36 -5 -17 -7 -43 -17 -59 -24 -27 -11 -38 -6 -182 82 -85 51
-211 130 -280 176 -69 46 -128 84 -130 84 -3 0 -86 -50 -185 -111z"/>
<path d="M1120 3314 c-47 -30 -86 -58 -87 -62 -3 -8 359 -232 375 -232 5 0 52
26 105 58 l96 59 -194 116 c-107 65 -198 117 -202 117 -5 0 -46 -25 -93 -56z"/>
<path d="M8074 3271 c-135 -82 -469 -292 -477 -300 -5 -5 67 -54 160 -109 92
-56 213 -131 268 -167 l99 -66 25 33 c87 113 187 187 272 202 48 8 63 2 92
-43 21 -31 34 -39 78 -50 65 -14 133 -70 160 -130 18 -40 60 -105 98 -148 l19
-23 50 28 c80 44 312 187 312 192 0 3 -107 66 -237 141 -295 169 -647 373
-733 426 -113 69 -97 68 -186 14z m99 -270 c26 -10 19 -22 -29 -54 -50 -33
-89 -71 -111 -107 l-15 -26 -39 19 c-21 10 -39 21 -39 24 0 13 31 61 54 82 64
60 128 82 179 62z m120 -115 l39 -32 -39 -29 c-21 -16 -55 -43 -75 -62 l-38
-33 -45 32 c-25 18 -45 38 -45 45 0 25 117 113 149 113 9 -1 33 -16 54 -34z
m412 24 c3 -6 -1 -7 -9 -4 -18 7 -21 14 -7 14 6 0 13 -4 16 -10z"/>
<path d="M8080 2990 c-13 -8 -13 -10 2 -10 9 0 20 5 23 10 8 13 -5 13 -25 0z"/>
<path d="M8001 2881 c-10 -6 -10 -10 -1 -16 13 -8 24 -1 19 14 -3 6 -10 7 -18
2z"/>
<path d="M778 3108 l-157 -101 67 -41 c37 -23 168 -102 292 -175 124 -73 273
-162 331 -197 59 -35 109 -64 112 -64 3 0 113 67 244 148 131 81 260 161 287
176 47 27 48 30 30 43 -24 18 -288 171 -307 179 -8 3 -54 -21 -103 -52 -49
-32 -106 -68 -128 -80 l-38 -22 -207 125 c-113 69 -219 134 -236 144 l-30 18
-157 -101z"/>
<path d="M500 2716 l0 -276 83 -54 c45 -30 152 -93 237 -141 85 -48 220 -127
300 -174 304 -182 319 -191 337 -184 10 4 61 34 113 68 52 34 204 128 338 210
l243 150 -1 282 c-1 159 -5 283 -10 283 -5 0 -37 -20 -72 -44 -35 -24 -128
-83 -208 -131 -80 -48 -209 -128 -287 -176 -78 -49 -144 -89 -146 -89 -8 0
-811 478 -904 538 l-23 14 0 -276z"/>
<path d="M7450 2893 c0 -33 4 -63 9 -68 6 -6 11 -41 13 -80 l3 -70 45 -24 c69
-37 92 -52 86 -58 -3 -3 -34 11 -70 31 l-65 36 -3 -112 -3 -112 40 -29 c41
-29 301 -186 525 -317 69 -40 234 -137 367 -216 133 -79 245 -144 249 -144 4
0 64 36 133 80 69 44 227 142 351 218 l225 138 3 184 c1 103 7 189 12 194 12
12 14 146 2 146 -4 0 -23 -10 -42 -23 -42 -28 -635 -385 -669 -403 -19 -10
-28 -10 -45 0 -12 7 -93 55 -181 106 -88 52 -297 175 -465 275 -168 100 -339
201 -380 225 -41 23 -90 51 -107 62 l-33 20 0 -59z m502 -486 c201 -116 281
-167 274 -174 -2 -3 -44 18 -93 45 -140 80 -368 215 -394 235 -54 39 48 -12
213 -106z m543 -327 c129 -77 142 -86 132 -96 -5 -5 -214 116 -289 168 -39 27
-35 44 5 20 17 -11 86 -52 152 -92z"/>
<path d="M2938 2815 c-32 -8 -85 -28 -119 -45 l-61 -31 62 -46 62 -45 -38 -31
c-58 -48 -96 -87 -139 -142 -22 -27 -42 -54 -46 -58 -4 -5 -29 7 -55 26 -93
66 -88 66 -133 -10 -22 -38 -55 -111 -73 -163 -30 -89 -32 -103 -33 -235 0
-139 0 -141 33 -207 34 -69 95 -127 209 -197 28 -17 54 -43 61 -60 17 -40 70
-81 184 -143 145 -80 168 -90 233 -101 51 -9 75 -7 133 7 67 16 73 16 104 0
46 -24 196 -113 638 -379 506 -305 535 -321 607 -335 193 -38 402 119 481 363
30 92 31 223 1 284 -55 115 -181 122 -328 19 -108 -75 -188 -196 -214 -324 -6
-31 -12 -58 -13 -60 -1 -2 -149 101 -161 112 -8 7 34 122 70 191 73 142 212
249 340 262 l56 6 -52 32 c-29 17 -144 87 -257 155 -113 68 -284 171 -380 230
-96 59 -195 119 -220 133 l-45 26 5 63 c10 126 -27 217 -111 273 -25 17 -56
46 -70 65 -16 22 -59 54 -112 84 -54 30 -94 60 -104 77 -20 33 -69 68 -131 92
-24 10 -57 32 -75 50 -62 61 -201 89 -309 62z m15 -203 c-8 -5 0 -15 23 -30
19 -12 34 -18 34 -13 0 5 -9 13 -20 16 -11 3 -20 10 -20 15 0 5 14 1 30 -8 17
-9 28 -22 26 -28 -3 -7 3 -10 14 -7 41 11 24 -17 -50 -80 -44 -37 -100 -97
-126 -132 -27 -39 -50 -62 -57 -58 -39 22 -107 77 -105 84 2 4 37 47 78 95 73
85 152 154 174 154 7 0 7 -3 -1 -8z m265 -232 c-63 -46 -198 -195 -210 -231
-4 -13 -137 59 -138 75 0 14 102 146 151 195 24 24 57 52 73 62 l28 17 65 -46
65 -47 -34 -25z m149 -19 c8 -4 -9 -22 -46 -50 -32 -23 -91 -76 -131 -117 -40
-41 -76 -74 -80 -74 -4 0 -13 7 -20 15 -10 12 -10 18 0 30 7 8 17 12 23 8 6
-3 7 -1 3 6 -9 13 88 118 154 167 43 32 60 35 97 15z m263 -301 c57 -29 605
-360 704 -425 86 -57 110 -78 59 -51 -44 22 -797 477 -807 487 -16 15 2 10 44
-11z m140 -292 c118 -74 279 -172 357 -218 115 -68 144 -90 153 -114 8 -22 7
-32 -2 -38 -27 -16 -55 -6 -143 51 -108 71 -520 326 -590 365 -113 64 -143
106 -92 125 27 11 29 10 317 -171z m1121 -927 c-11 -15 -37 -41 -58 -56 -32
-23 -29 -19 17 28 61 64 71 71 41 28z"/>
<path d="M8390 2788 c-30 -17 -49 -33 -42 -36 7 -2 28 8 47 22 18 14 38 26 44
26 5 0 13 5 16 10 11 17 -8 11 -65 -22z"/>
<path d="M8195 2595 c16 -13 32 -21 35 -18 3 3 -1 8 -7 10 -7 3 -13 11 -13 19
0 8 -10 14 -22 14 -22 -1 -22 -2 7 -25z"/>
<path d="M8620 2540 c0 -5 -7 -10 -15 -10 -25 0 -17 -15 10 -18 13 -1 27 3 31
10 5 7 3 8 -6 3 -10 -6 -12 -4 -7 8 3 10 2 17 -3 17 -6 0 -10 -4 -10 -10z"/>
<path d="M8680 2522 c-8 -3 -48 -29 -88 -59 -82 -61 -82 -55 6 -104 l44 -24
61 33 c34 19 71 40 81 48 19 13 19 14 0 35 -36 40 -89 76 -104 71z"/>
<path d="M8545 2500 c-6 -10 1 -14 18 -11 5 1 6 -3 2 -9 -7 -11 8 -14 18 -3 8
7 -11 33 -24 33 -4 0 -11 -4 -14 -10z"/>
<path d="M8496 2461 c-10 -11 -15 -25 -11 -31 9 -15 28 -1 21 16 -4 11 1 13
21 8 19 -5 24 -3 21 7 -7 22 -32 22 -52 0z"/>
<path d="M6190 2155 c-496 -299 -560 -339 -560 -346 0 -4 93 -63 208 -133 114
-69 219 -133 233 -142 25 -16 28 -15 199 86 96 56 201 119 234 141 l61 38 6
-57 6 -57 1 63 c1 34 5 62 9 62 4 0 41 -22 82 -49 42 -26 125 -77 185 -112 60
-35 122 -74 137 -86 l27 -23 231 139 232 139 -293 178 c-548 332 -618 374
-630 373 -7 0 -173 -97 -368 -214z"/>
<path d="M830 1780 l-76 -47 -66 43 -67 43 -3 -87 c-4 -99 -4 -100 97 -161
l54 -33 53 32 c96 58 98 62 98 161 0 48 -3 90 -7 92 -5 2 -42 -17 -83 -43z"/>
<path d="M7120 1522 c-272 -164 -513 -310 -535 -325 -22 -15 -43 -27 -47 -27
-4 0 -38 19 -75 43 -38 24 -111 67 -163 97 -52 30 -162 97 -245 148 -82 52
-226 140 -320 194 -93 55 -183 109 -198 120 -16 11 -30 18 -32 16 -2 -2 -5
-147 -6 -323 l-2 -319 42 -29 c47 -32 686 -420 881 -534 69 -40 131 -73 138
-73 8 0 26 8 40 18 15 11 209 128 432 262 223 133 446 269 497 302 l92 59 3
112 c2 62 1 212 -2 334 l-5 221 -495 -296z"/>
<path d="M1811 1649 c-52 -5 -95 -10 -97 -11 -1 -2 3 -37 10 -78 12 -68 14
-71 17 -35 l4 40 85 6 c90 7 100 3 100 -38 0 -13 5 -23 10 -23 6 0 10 28 10
65 0 53 -3 66 -19 75 -11 5 -21 9 -23 9 -2 -1 -45 -6 -97 -10z"/>
<path d="M2028 1635 c5 -11 13 -53 17 -92 5 -55 11 -73 22 -73 10 0 13 6 8 18
-4 9 -11 43 -17 74 -5 31 -16 65 -25 75 -13 17 -14 17 -5 -2z"/>
<path d="M1626 1597 c-5 -11 -6 -57 -3 -104 6 -76 10 -90 34 -116 45 -48 86
-60 219 -66 l121 -6 129 -79 c71 -43 225 -136 342 -205 140 -83 212 -132 212
-142 0 -20 56 -71 103 -95 17 -9 76 -43 129 -75 112 -67 156 -81 215 -70 94
18 117 52 107 162 l-7 79 -23 -25 c-32 -35 -84 -55 -140 -55 l-47 0 6 -60 7
-61 -35 27 c-32 24 -35 31 -35 79 0 63 -7 85 -26 85 -10 0 -14 -15 -14 -60 0
-33 -4 -60 -8 -60 -21 0 -32 29 -32 85 0 56 -11 85 -32 85 -4 0 -8 -17 -8 -37
0 -50 -12 -67 -39 -58 -18 6 -21 14 -21 69 0 57 -11 86 -32 86 -4 0 -8 -12 -9
-27 -1 -16 -4 -39 -8 -52 -6 -23 -7 -23 -29 -5 -13 11 -24 29 -25 42 -1 24 4
20 -477 314 -91 56 -181 107 -200 114 -19 7 -73 14 -120 14 -85 2 -85 2 -45
15 l40 13 -63 1 c-118 2 -163 40 -173 146 -4 43 -7 55 -13 42z"/>
<path d="M6518 1561 c-37 -25 -67 -52 -68 -58 0 -7 28 8 63 34 77 57 82 62 76
67 -2 2 -34 -17 -71 -43z"/>
<path d="M6653 1560 c15 -12 27 -30 27 -41 0 -10 7 -19 15 -19 24 0 17 27 -12
48 -42 28 -62 36 -30 12z"/>
<path d="M6593 1509 c-35 -22 -47 -47 -15 -30 17 9 59 51 51 51 -2 0 -19 -10
-36 -21z"/>
<path d="M6475 1490 c-3 -6 1 -7 9 -4 18 7 21 14 7 14 -6 0 -13 -4 -16 -10z"/>
<path d="M2782 1077 c-9 -10 9 -26 85 -73 53 -32 119 -73 146 -90 43 -27 54
-30 75 -21 23 10 23 12 5 25 -37 27 -281 172 -291 172 -5 0 -14 -6 -20 -13z"/>
</g>
</svg>
